<?xml version="1.0" encoding="UTF-8"?>
<!DOCTYPE svg PUBLIC "-//W3C//DTD SVG 1.1//EN" "http://www.w3.org/Graphics/SVG/1.1/DTD/svg11.dtd">
<!-- Creator: CorelDRAW X8 -->
<svg xmlns="http://www.w3.org/2000/svg" xml:space="preserve" width="420mm" height="297mm" version="1.1" style="shape-rendering:geometricPrecision; text-rendering:geometricPrecision; image-rendering:optimizeQuality; fill-rule:evenodd; clip-rule:evenodd"
viewBox="0 0 42000 29700"
 xmlns:xlink="http://www.w3.org/1999/xlink">
 <defs>
  <style type="text/css">
   <![CDATA[
    .fil0 {fill:white}
   ]]>
  </style>
 </defs>
 <g id="Capa_x0020_1">
  <metadata id="CorelCorpID_0Corel-Layer"/>
  <path class="fil0" d="M11580 10327l2343 1825c1246,1023 2815,2189 4112,3225l2664 2088c93,76 214,182 301,240l5275 -4145c113,-84 175,-132 282,-219 109,-89 198,-145 307,-234l3556 -2780 0 10171 -18840 0 0 -10171zm625 -1167l17590 0c-79,118 -1391,1115 -1620,1298l-6893 5404c-92,76 -190,156 -282,218l-5493 -4303c-307,-253 -3205,-2471 -3302,-2617zm-1876 12630l21342 0 0 -13880 -21342 0 0 13880zm-4181 -21790l0 29700 29704 0 0 -29700 -29704 0z"/>
 </g>
</svg>
