<?xml version="1.0" encoding="UTF-8"?>
<!DOCTYPE svg PUBLIC "-//W3C//DTD SVG 1.1//EN" "http://www.w3.org/Graphics/SVG/1.1/DTD/svg11.dtd">
<!-- Creator: CorelDRAW X8 -->
<svg xmlns="http://www.w3.org/2000/svg" xml:space="preserve" width="420mm" height="297mm" version="1.1" style="shape-rendering:geometricPrecision; text-rendering:geometricPrecision; image-rendering:optimizeQuality; fill-rule:evenodd; clip-rule:evenodd"
viewBox="0 0 42000 29700"
 xmlns:xlink="http://www.w3.org/1999/xlink">
 <defs>
  <style type="text/css">
   <![CDATA[
    .fil0 {fill:white;fill-rule:nonzero}
   ]]>
  </style>
 </defs>
 <g id="Capa_x0020_1">
  <metadata id="CorelCorpID_0Corel-Layer"/>
  <path class="fil0" d="M30229 23047l-3821 0 0 -5985c0,-1428 -28,-3264 -1988,-3264 -1991,0 -2295,1555 -2295,3160l0 6089 -3820 0 0 -12308 3666 0 0 1681 52 0c511,-967 1759,-1988 3621,-1988 3869,0 4585,2548 4585,5864l0 6751zm-16239 -13991c-1228,0 -2219,-994 -2219,-2220 0,-1222 991,-2217 2219,-2217 1225,0 2217,995 2217,2217 0,1226 -992,2220 -2217,2220zm1914 13991l-3829 0 0 -12308 3829 0 0 12308zm-9754 -23047l0 29700 29700 0 0 -29700 -29700 0z"/>
 </g>
</svg>
