<?xml version="1.0" encoding="UTF-8"?>
<!DOCTYPE svg PUBLIC "-//W3C//DTD SVG 1.1//EN" "http://www.w3.org/Graphics/SVG/1.1/DTD/svg11.dtd">
<!-- Creator: CorelDRAW X8 -->
<svg xmlns="http://www.w3.org/2000/svg" xml:space="preserve" width="420mm" height="297mm" version="1.1" style="shape-rendering:geometricPrecision; text-rendering:geometricPrecision; image-rendering:optimizeQuality; fill-rule:evenodd; clip-rule:evenodd"
viewBox="0 0 42000 29700"
 xmlns:xlink="http://www.w3.org/1999/xlink">
 <defs>
  <style type="text/css">
   <![CDATA[
    .fil0 {fill:white}
   ]]>
  </style>
 </defs>
 <g id="Capa_x0020_1">
  <metadata id="CorelCorpID_0Corel-Layer"/>
  <g id="_2195307340080">
   <path class="fil0" d="M26395 18871c-228,637 -1322,1225 -1849,1303 -472,68 -1070,98 -1726,-108 -398,-127 -908,-296 -1562,-580 -2749,-1184 -4544,-3951 -4681,-4134 -137,-184 -1119,-1487 -1119,-2835 0,-1348 708,-2010 959,-2284 251,-277 549,-344 731,-344 183,0 365,4 525,11 169,8 395,-64 617,468 228,550 776,1898 844,2033 69,139 115,300 24,483 -92,180 -138,296 -274,457 -138,157 -289,356 -412,479 -137,135 -280,285 -119,558 159,277 709,1172 1524,1899 1046,932 1929,1220 2203,1359 274,138 434,116 594,-68 160,-183 685,-801 868,-1074 182,-274 364,-229 616,-139 251,94 1598,757 1872,891 274,139 457,206 525,322 69,113 69,663 -160,1303zm-5361 -13030c-5028,0 -9116,4089 -9118,9110 -1,1723 481,3400 1393,4853l217 344 -921 3363 3450 -906 333 198c1399,827 3003,1269 4638,1269l5 0c5024,0 9112,-4088 9114,-9113 1,-2434 -946,-4722 -2667,-6444 -1721,-1723 -4009,-2674 -6444,-2674z"/>
   <path class="fil0" d="M21031 25922l-5 0c-1835,0 -3639,-461 -5240,-1333l-5814 1524 1556 -5680c-960,-1663 -1464,-3550 -1464,-5482 2,-6043 4922,-10960 10966,-10960 2934,0 5687,1143 7758,3213 2070,2074 3210,4827 3209,7755 -3,6047 -4922,10963 -10966,10963zm-14881 -25922l0 29700 29700 0 0 -29700 -29700 0z"/>
  </g>
 </g>
</svg>
