<?xml version="1.0" encoding="UTF-8"?>
<!DOCTYPE svg PUBLIC "-//W3C//DTD SVG 1.1//EN" "http://www.w3.org/Graphics/SVG/1.1/DTD/svg11.dtd">
<!-- Creator: CorelDRAW X8 -->
<svg xmlns="http://www.w3.org/2000/svg" xml:space="preserve" width="420mm" height="297mm" version="1.1" style="shape-rendering:geometricPrecision; text-rendering:geometricPrecision; image-rendering:optimizeQuality; fill-rule:evenodd; clip-rule:evenodd"
viewBox="0 0 42000 29700"
 xmlns:xlink="http://www.w3.org/1999/xlink">
 <defs>
  <style type="text/css">
   <![CDATA[
    .fil0 {fill:#354786}
   ]]>
  </style>
 </defs>
 <g id="Capa_x0020_1">
  <metadata id="CorelCorpID_0Corel-Layer"/>
  <path class="fil0" d="M6150 0l29700 0 0 29700 -29700 0 0 -29700zm6648 13486c150,398 277,736 381,1015 103,279 187,517 250,713 63,-104 131,-210 203,-320 72,-109 157,-230 255,-363 98,-132 209,-282 332,-449 124,-167 270,-363 437,-587l1218 -1641c132,-185 285,-333 457,-445 173,-112 383,-169 631,-169 224,0 416,64 574,190 159,127 252,329 281,605l570 5079 -1779 0 -199 -2013c-35,-328 -59,-614 -73,-859 -15,-245 -25,-488 -31,-730 -126,202 -275,425 -444,670 -170,244 -388,554 -653,928l-1027 1451c-104,144 -201,258 -290,341 -89,84 -180,149 -272,195 -92,46 -184,76 -276,90 -92,15 -193,22 -303,22 -109,0 -208,-7 -298,-22 -89,-14 -171,-44 -246,-90 -75,-46 -142,-111 -203,-195 -60,-83 -116,-197 -168,-341l-519 -1460c-69,-195 -131,-371 -185,-526 -55,-156 -102,-296 -143,-419 -40,-124 -76,-238 -108,-342 -31,-103 -62,-204 -90,-302 -93,213 -193,454 -303,721 -109,268 -233,558 -371,868l-899 2013 -1753 0 2384 -5079c132,-276 302,-478 510,-605 207,-126 423,-190 647,-190 231,0 415,55 553,165 139,109 245,259 320,449l630 1632zm13743 -2151l-1416 1503 -3533 0 -130 752 4354 0 -1331 1408 -3273 0 -372 2116 -1796 0 1027 -5779 6470 0zm6945 4293l-1408 1486 -2902 0c-449,0 -860,-65 -1231,-194 -372,-130 -688,-308 -950,-536 -262,-227 -465,-496 -609,-807 -144,-311 -216,-648 -216,-1011 0,-472 106,-907 319,-1304 213,-398 501,-739 864,-1024 363,-285 789,-507 1278,-665 490,-158 1011,-238 1564,-238l4051 0 -1417 1503 -2902 0c-271,0 -524,41 -760,121 -236,81 -443,193 -622,337 -178,144 -320,313 -423,505 -104,193 -156,405 -156,635 0,179 36,342 108,488 72,147 173,272 303,376 129,104 283,184 462,242 178,58 377,86 596,86l4051 0zm-12401 2268l141 0 0 544 -141 0 0 -544zm897 0l135 0 321 358 0 -358 141 0 0 544 -136 0 -320 -357 0 357 -141 0 0 -544zm2051 89l-100 72c-63,-49 -137,-73 -221,-73 -73,0 -134,17 -184,53 -49,35 -74,78 -74,129 0,53 26,97 77,134 52,36 115,54 190,54 49,0 90,-7 124,-22 33,-15 61,-39 81,-71l-215 0 0 -97 374 0 1 23c0,48 -17,93 -51,136 -33,42 -77,75 -131,97 -54,23 -117,34 -189,34 -77,0 -146,-12 -207,-37 -61,-25 -109,-59 -144,-105 -35,-45 -53,-94 -53,-147 0,-72 33,-135 98,-188 77,-63 178,-95 302,-95 65,0 126,9 182,26 48,15 94,41 140,77zm779 -89l407 0 0 101 -266 0 0 98 266 0 0 100 -266 0 0 144 266 0 0 101 -407 0 0 -544zm1135 0l135 0 321 358 0 -358 141 0 0 544 -136 0 -319 -357 0 357 -142 0 0 -544zm1352 0l141 0 0 544 -141 0 0 -544zm897 0l407 0 0 101 -265 0 0 98 265 0 0 100 -265 0 0 144 265 0 0 101 -407 0 0 -544zm1144 0l151 0c82,0 141,5 176,16 35,10 63,28 84,53 21,25 32,55 32,89 0,36 -12,66 -35,90 -24,24 -59,42 -106,54l176 242 -155 0 -168 -230 -14 0 0 230 -141 0 0 -544zm141 213l45 0c46,0 77,-5 94,-13 17,-9 26,-23 26,-44 0,-12 -4,-22 -13,-31 -8,-9 -20,-15 -34,-19 -14,-4 -41,-6 -79,-6l-39 0 0 113zm1037 -213l141 0 0 544 -141 0 0 -544zm1124 0l142 0 287 544 -147 0 -58 -112 -306 0 -59 112 -148 0 289 -544zm71 144l-101 188 202 0 -101 -188zm-23959 -164l12567 0 0 584 -12567 0 0 -584z"/>
 </g>
</svg>
