<?xml version="1.0" encoding="UTF-8"?>
<!DOCTYPE svg PUBLIC "-//W3C//DTD SVG 1.1//EN" "http://www.w3.org/Graphics/SVG/1.1/DTD/svg11.dtd">
<!-- Creator: CorelDRAW X8 -->
<svg xmlns="http://www.w3.org/2000/svg" xml:space="preserve" width="420mm" height="297mm" version="1.1" style="shape-rendering:geometricPrecision; text-rendering:geometricPrecision; image-rendering:optimizeQuality; fill-rule:evenodd; clip-rule:evenodd"
viewBox="0 0 42000 29700"
 xmlns:xlink="http://www.w3.org/1999/xlink">
 <defs>
  <style type="text/css">
   <![CDATA[
    .fil3 {fill:none}
    .fil1 {fill:#FF6600}
    .fil0 {fill:#354786;fill-rule:nonzero}
    .fil2 {fill:#FF6600;fill-rule:nonzero}
   ]]>
  </style>
 </defs>
 <g id="Capa_x0020_1">
  <metadata id="CorelCorpID_0Corel-Layer"/>
  <g id="_2195145534528">
   <g>
    <path class="fil0" d="M8947 12846c220,584 406,1081 559,1491 152,411 275,760 368,1048 93,-153 192,-309 298,-470 106,-161 231,-339 375,-533 143,-195 306,-415 488,-660 182,-246 396,-533 641,-864l1790 -2411c195,-271 419,-489 673,-654 254,-165 563,-248 927,-248 330,0 611,93 844,280 232,186 370,482 412,888l838 7464 -2615 0 -292 -2957c-51,-483 -87,-904 -108,-1263 -21,-360 -36,-718 -44,-1073 -186,296 -404,624 -654,984 -250,359 -569,814 -958,1364l-1511 2133c-152,211 -294,379 -425,501 -131,123 -265,218 -400,286 -135,68 -271,112 -406,133 -136,21 -284,32 -444,32 -161,0 -307,-11 -438,-32 -132,-21 -252,-65 -362,-133 -110,-68 -210,-163 -298,-286 -89,-122 -172,-290 -248,-501l-762 -2145c-101,-288 -192,-546 -273,-775 -80,-228 -150,-433 -209,-615 -59,-182 -112,-350 -159,-502 -46,-152 -91,-300 -133,-444 -135,313 -283,666 -444,1060 -161,393 -343,819 -546,1276l-1320 2957 -2577 0 3503 -7464c195,-406 445,-702 749,-888 305,-187 622,-280 952,-280 339,0 610,81 813,242 203,160 359,380 469,660l927 2399zm20196 -3161l-2082 2209 -5191 0 -191 1104 6398 0 -1955 2069 -4811 0 -546 3110 -2640 0 1510 -8492 9508 0zm10206 6309l-2069 2183 -4265 0c-660,0 -1263,-95 -1809,-285 -546,-191 -1011,-453 -1396,-787 -385,-335 -684,-730 -895,-1187 -212,-457 -318,-952 -318,-1485 0,-694 157,-1333 470,-1917 313,-584 736,-1086 1269,-1504 534,-419 1160,-745 1879,-978 719,-233 1485,-349 2298,-349l5953 0 -2082 2209 -4265 0c-398,0 -770,59 -1117,177 -347,119 -651,284 -914,496 -262,211 -469,459 -622,742 -152,284 -228,595 -228,933 0,262 53,502 158,717 106,216 254,400 445,553 190,152 416,270 679,355 262,85 554,127 876,127l5953 0z"/>
    <g>
     <rect class="fil1" x="1534" y="19297" width="18468" height="857"/>
     <path class="fil2" d="M21125 19326l207 0 0 800 -207 0 0 -800zm1319 0l197 0 472 526 0 -526 207 0 0 800 -199 0 -470 -525 0 525 -207 0 0 -800zm3013 131l-146 106c-93,-72 -201,-108 -325,-108 -107,0 -198,26 -270,78 -73,53 -109,116 -109,191 0,77 37,142 113,196 75,53 168,80 279,80 72,0 132,-11 182,-33 49,-22 89,-57 119,-104l-317 0 0 -143 551 0 1 34c0,70 -25,136 -74,199 -50,63 -114,111 -193,144 -79,33 -172,49 -278,49 -114,0 -215,-18 -304,-54 -89,-36 -160,-87 -212,-154 -52,-67 -78,-139 -78,-216 0,-106 48,-198 144,-276 114,-94 262,-140 444,-140 95,0 185,13 268,38 70,22 138,60 205,113zm1146 -131l597 0 0 149 -390 0 0 144 390 0 0 147 -390 0 0 211 390 0 0 149 -597 0 0 -800zm1668 0l197 0 472 526 0 -526 207 0 0 800 -199 0 -470 -525 0 525 -207 0 0 -800zm1986 0l207 0 0 800 -207 0 0 -800zm1319 0l597 0 0 149 -390 0 0 144 390 0 0 147 -390 0 0 211 390 0 0 149 -597 0 0 -800zm1680 0l222 0c120,0 207,8 258,23 52,16 93,43 124,79 31,37 47,80 47,130 0,53 -17,97 -51,132 -35,36 -87,62 -156,80l258 356 -227 0 -246 -339 -21 0 0 339 -208 0 0 -800zm208 313l66 0c67,0 113,-6 138,-19 25,-13 38,-34 38,-64 0,-17 -6,-33 -19,-46 -12,-13 -29,-22 -50,-27 -21,-6 -60,-9 -116,-9l-57 0 0 165zm1523 -313l207 0 0 800 -207 0 0 -800zm1652 0l210 0 421 800 -217 0 -85 -165 -449 0 -87 165 -217 0 424 -800zm105 213l-148 275 296 0 -148 -275z"/>
    </g>
   </g>
   <rect class="fil3" y="7245" width="42000" height="15211"/>
  </g>
 </g>
</svg>
