<?xml version="1.0" encoding="UTF-8"?>
<!DOCTYPE svg PUBLIC "-//W3C//DTD SVG 1.1//EN" "http://www.w3.org/Graphics/SVG/1.1/DTD/svg11.dtd">
<!-- Creator: CorelDRAW X8 -->
<svg xmlns="http://www.w3.org/2000/svg" xml:space="preserve" width="420mm" height="297mm" version="1.1" style="shape-rendering:geometricPrecision; text-rendering:geometricPrecision; image-rendering:optimizeQuality; fill-rule:evenodd; clip-rule:evenodd"
viewBox="0 0 42000 29700"
 xmlns:xlink="http://www.w3.org/1999/xlink">
 <defs>
  <style type="text/css">
   <![CDATA[
    .fil0 {fill:none}
    .fil2 {fill:white}
    .fil1 {fill:white;fill-rule:nonzero}
   ]]>
  </style>
 </defs>
 <g id="Capa_x0020_1">
  <metadata id="CorelCorpID_0Corel-Layer"/>
  <g id="_2195307956624">
   <rect class="fil0" x="579" y="5967" width="41586" height="15061"/>
   <g>
    <path class="fil1" d="M9438 11513c218,578 402,1071 553,1477 151,407 272,752 364,1037 93,-151 191,-306 296,-465 105,-159 228,-335 371,-528 142,-193 303,-410 483,-653 181,-243 392,-528 635,-855l1772 -2388c193,-268 415,-484 667,-647 251,-164 557,-246 917,-246 327,0 605,93 836,277 230,184 366,478 408,880l830 7390 -2589 0 -289 -2928c-51,-478 -86,-895 -107,-1251 -21,-356 -36,-710 -44,-1062 -185,293 -400,618 -647,974 -248,356 -564,807 -949,1351l-1496 2112c-151,209 -291,375 -421,496 -130,122 -262,216 -396,283 -134,67 -268,111 -402,132 -134,21 -281,31 -440,31 -159,0 -304,-10 -434,-31 -130,-21 -249,-65 -358,-132 -109,-67 -207,-161 -295,-283 -88,-121 -170,-287 -245,-496l-755 -2124c-100,-285 -190,-541 -270,-767 -79,-226 -149,-429 -207,-610 -59,-180 -111,-345 -157,-496 -46,-151 -90,-298 -132,-440 -134,310 -281,660 -440,1050 -159,389 -340,810 -541,1263l-1307 2928 -2551 0 3469 -7390c192,-402 440,-696 741,-880 302,-184 616,-277 943,-277 335,0 603,80 804,239 201,159 356,377 465,654l918 2375zm19997 -3129l-2061 2187 -5141 0 -189 1093 6335 0 -1936 2049 -4763 0 -541 3079 -2614 0 1496 -8408 9414 0zm10105 6246l-2049 2162 -4223 0c-653,0 -1250,-94 -1791,-283 -540,-188 -1001,-448 -1382,-779 -382,-331 -677,-723 -886,-1175 -210,-453 -315,-943 -315,-1471 0,-687 155,-1319 465,-1897 310,-579 729,-1075 1257,-1490 528,-415 1148,-737 1860,-968 713,-230 1471,-345 2275,-345l5895 0 -2061 2187 -4223 0c-394,0 -763,58 -1106,176 -344,117 -645,280 -905,490 -260,209 -465,454 -616,735 -151,281 -226,589 -226,924 0,260 52,496 157,710 105,214 251,396 440,547 188,151 412,268 672,352 260,83 549,125 867,125l5895 0z"/>
    <g>
     <rect class="fil2" x="2098" y="17901" width="18286" height="849"/>
     <path class="fil1" d="M21495 17929l206 0 0 793 -206 0 0 -793zm1306 0l196 0 467 522 0 -522 205 0 0 793 -197 0 -465 -520 0 520 -206 0 0 -793zm2984 130l-145 105c-92,-71 -199,-107 -321,-107 -107,0 -196,26 -268,78 -72,52 -108,114 -108,188 0,77 37,141 112,194 75,54 167,80 276,80 72,0 132,-11 180,-33 49,-22 89,-56 119,-103l-314 0 0 -141 545 0 1 33c0,70 -24,135 -73,198 -50,62 -113,109 -191,142 -78,32 -170,49 -275,49 -113,0 -213,-18 -302,-54 -88,-36 -158,-86 -209,-152 -52,-67 -77,-138 -77,-214 0,-105 47,-196 142,-274 113,-92 259,-138 440,-138 94,0 182,12 265,38 69,21 137,58 203,111zm1134 -130l592 0 0 148 -386 0 0 143 386 0 0 145 -386 0 0 209 386 0 0 148 -592 0 0 -793zm1652 0l196 0 467 522 0 -522 205 0 0 793 -197 0 -466 -520 0 520 -205 0 0 -793zm1967 0l205 0 0 793 -205 0 0 -793zm1305 0l592 0 0 148 -386 0 0 143 386 0 0 145 -386 0 0 209 386 0 0 148 -592 0 0 -793zm1664 0l219 0c120,0 206,8 257,24 51,15 91,42 122,78 31,36 47,79 47,129 0,52 -17,95 -51,130 -34,35 -86,62 -154,80l255 352 -225 0 -244 -336 -20 0 0 336 -206 0 0 -793zm206 311l65 0c66,0 112,-7 137,-19 25,-13 38,-34 38,-63 0,-18 -7,-33 -19,-46 -12,-13 -29,-22 -50,-27 -20,-6 -59,-9 -114,-9l-57 0 0 164zm1508 -311l205 0 0 793 -205 0 0 -793zm1636 0l207 0 418 793 -215 0 -85 -163 -444 0 -87 163 -214 0 420 -793zm104 211l-147 273 293 0 -146 -273z"/>
    </g>
   </g>
  </g>
 </g>
</svg>
